<?xml version="1.0" encoding="UTF-8"?>
<svg version="1.1" xmlns="http://www.w3.org/2000/svg" width="694" height="210">
<path d="M0 0 C229.02 0 458.04 0 694 0 C694 69.3 694 138.6 694 210 C464.98 210 235.96 210 0 210 C0 140.7 0 71.4 0 0 Z " fill="#FAFAFA" transform="translate(0,0)"/>
<path d="M0 0 C7.21023466 5.70337663 13.28875611 14.42344537 14.80078125 23.5625 C15.88647449 35.11476402 14.88251187 44.61013232 7.81640625 54.27734375 C-1.46327479 65.21881164 -13.7652872 73.0873634 -28.19921875 74.5625 C-42.69629292 75.23116486 -42.69629292 75.23116486 -47.875 73.84765625 C-51.30079775 73.42734829 -52.80262519 74.85888391 -55.57421875 76.8125 C-66.5022763 84.17131295 -66.5022763 84.17131295 -73.19921875 83.5625 C-72.76609375 82.5725 -72.76609375 82.5725 -72.32421875 81.5625 C-70.25114143 76.03429381 -68.51955451 70.51147129 -69.19921875 64.5625 C-71.19278419 62.03033441 -71.19278419 62.03033441 -73.88671875 59.8125 C-80.89243243 53.2328764 -85.54611622 44.97201788 -86.53515625 35.265625 C-86.67924329 22.52833051 -82.90955785 12.83314575 -74.234375 3.43359375 C-53.14909229 -16.66033751 -23.20308511 -15.16649258 0 0 Z " fill="#020202" transform="translate(142.19921875,60.4375)"/>
<path d="M0 0 C7.28882855 0.45555178 13.35404079 6.86499246 18 12 C24.8526262 19.80090085 28.82331231 28.58205858 28.38671875 39.10546875 C26.89977471 50.23501957 23.05760469 59.48545268 14.625 66.875 C11.72450773 69.66206047 11.72450773 69.66206047 10.60546875 73.41015625 C11.07609037 79.15529192 12.9419898 84.6414074 15 90 C10.125927 89.60883236 7.14232314 88.69566894 2.91479492 86.06713867 C-5.74387468 80.78657136 -13.30053614 80.29061793 -23.31030273 80.85717773 C-33.19377439 81.37883516 -41.42492566 79.28582491 -50.0625 74.5 C-51.14660156 73.9121875 -52.23070313 73.324375 -53.34765625 72.71875 C-56 71 -56 71 -58 68 C-56.85144531 67.90203125 -55.70289062 67.8040625 -54.51953125 67.703125 C-38.36474066 66.20197752 -21.94177372 62.94177372 -10 51 C-4.61970503 44.51416497 -0.54213483 38.05727481 2 30 C2.19207031 29.41476563 2.38414062 28.82953125 2.58203125 28.2265625 C4.33010326 18.9144032 3.78105351 8.66491428 0 0 Z " fill="#050505" transform="translate(160,73)"/>
<path d="M0 0 C3.63 0 7.26 0 11 0 C11.85722656 1.52109375 12.71445312 3.0421875 13.59765625 4.609375 C14.75255886 6.65627556 15.90750936 8.70314911 17.0625 10.75 C17.90458008 12.24466797 17.90458008 12.24466797 18.76367188 13.76953125 C22.77967945 20.88360181 26.86617756 27.95376521 31 35 C31.42297363 34.29504395 31.84594727 33.59008789 32.28173828 32.86376953 C42.1328125 16.4453125 42.1328125 16.4453125 44.13769531 13.16894531 C46.01914474 10.06391913 46.01914474 10.06391913 47.47949219 6.94824219 C48.16640137 5.57780762 48.16640137 5.57780762 48.8671875 4.1796875 C49.2369873 3.36999512 49.60678711 2.56030273 49.98779297 1.72607422 C52 0 52 0 62 0 C62 18.48 62 36.96 62 56 C58.37 56 54.74 56 51 56 C50.67 45.11 50.34 34.22 50 23 C48.659375 25.413125 47.31875 27.82625 45.9375 30.3125 C44.69402067 32.51484206 43.44233498 34.71224711 42.18847656 36.90869141 C41.44649048 38.21433084 40.71042616 39.52337481 39.98339844 40.83740234 C39.11459323 42.40371836 38.21462424 43.95263442 37.3125 45.5 C36.81363281 46.3765625 36.31476563 47.253125 35.80078125 48.15625 C34 50 34 50 30.96484375 50.5234375 C28 50 28 50 26.453125 48.4453125 C26.05609375 47.67960937 25.6590625 46.91390625 25.25 46.125 C24.76789063 45.23296875 24.28578125 44.3409375 23.7890625 43.421875 C23.19867188 42.29265625 22.60828125 41.1634375 22 40 C20.72171792 37.68922058 19.43080659 35.38578989 18.13818359 33.08300781 C16.07818956 29.39642281 14.0415373 25.69683782 12 22 C11.67 33.55 11.34 45.1 11 57 C7.37 57 3.74 57 0 57 C0 38.19 0 19.38 0 0 Z " fill="#080809" transform="translate(430,68)"/>
<path d="M0 0 C10 0 10 0 12.3046875 2.10546875 C12.82289063 3.12253906 13.34109375 4.13960938 13.875 5.1875 C14.50899716 6.36334457 15.14312137 7.53912064 15.77734375 8.71484375 C16.11878418 9.38112793 16.46022461 10.04741211 16.81201172 10.73388672 C18.70184084 14.33877655 20.75209739 17.84985546 22.78369141 21.3762207 C24.84670475 24.96106423 26.88000906 28.5624624 28.91186523 32.16503906 C29.86880698 33.95132032 29.86880698 33.95132032 31 35 C31.42297363 34.25951416 31.84594727 33.51902832 32.28173828 32.75610352 C33.87831606 29.96459864 35.47777762 27.17477092 37.07910156 24.38598633 C37.76675405 23.18708894 38.45331013 21.9875619 39.13867188 20.78735352 C40.78469207 17.90561495 42.44688647 15.03593792 44.13769531 12.18017578 C45.29985919 10.19559965 46.42162062 8.18611913 47.47949219 6.14404297 C48.8671875 3.65234375 48.8671875 3.65234375 52 0 C55.3 0 58.6 0 62 0 C62 18.81 62 37.62 62 57 C58.37 57 54.74 57 51 57 C50.505 39.675 50.505 39.675 50 22 C45.10666546 30.83967226 45.10666546 30.83967226 40.21704102 39.68139648 C39.30716431 41.32217163 39.30716431 41.32217163 38.37890625 42.99609375 C37.7557251 44.12200928 37.13254395 45.2479248 36.49047852 46.40795898 C35 49 35 49 34 50 C31.66702567 50.04092937 29.33294775 50.04241723 27 50 C26.41992188 48.88882813 25.83984375 47.77765625 25.2421875 46.6328125 C24.45327811 45.13012794 23.66420682 43.62752837 22.875 42.125 C22.49601562 41.39796875 22.11703125 40.6709375 21.7265625 39.921875 C18.67679152 34.12731014 15.38358975 28.63931624 12 23 C11.67 33.89 11.34 44.78 11 56 C7.37 56 3.74 56 0 56 C0 37.52 0 19.04 0 0 Z " fill="#080808" transform="translate(203,68)"/>
<path d="M0 0 C6.67722383 3.98065267 12.17453866 8.15451996 14.25 15.9375 C15.32448793 23.86184846 14.14187604 30.49014264 9.25 36.9375 C2.4103884 42.92520268 -3.63817757 44.375542 -12.57421875 44.27734375 C-18.37781232 43.65629499 -23.32617244 41.44117129 -27.41015625 37.22265625 C-28.69178962 35.51505727 -29.74559145 33.81912126 -30.75 31.9375 C-31.183125 31.174375 -31.61625 30.41125 -32.0625 29.625 C-33.98994643 22.09043667 -33.07261048 15.98475288 -29.30859375 9.203125 C-22.29192332 -0.9965463 -11.65296415 -3.30167318 0 0 Z " fill="#0B0B0B" transform="translate(307.75,81.0625)"/>
<path d="M0 0 C3.96 0 7.92 0 12 0 C12.33 11.22 12.66 22.44 13 34 C15.51625 31.195 18.0325 28.39 20.625 25.5 C28.96108222 16.69886664 28.96108222 16.69886664 34.24609375 15.87109375 C37.65232104 15.9303628 40.69321096 16.19819537 44 17 C39.33477149 22.62219846 34.48740595 28.16010796 29 33 C28.34 33 27.68 33 27 33 C28.85035784 35.64851565 30.70527948 38.29379223 32.5625 40.9375 C33.1080957 41.71424072 33.65369141 42.49098145 34.21582031 43.29125977 C37.63056985 48.12848426 41.12934533 52.85737015 44.890625 57.43359375 C46 59 46 59 46 61 C41.30173469 62.17648869 37.66993858 62.39321452 33 61 C27.71365887 56.42732856 23.36950513 50.10227964 20 44 C20 43.34 20 42.68 20 42 C19.51789063 42.433125 19.03578125 42.86625 18.5390625 43.3125 C17.90742188 43.869375 17.27578125 44.42625 16.625 45 C15.99851562 45.556875 15.37203125 46.11375 14.7265625 46.6875 C13 48 13 48 11 48 C11 52.29 11 56.58 11 61 C7.37 61 3.74 61 0 61 C0 40.87 0 20.74 0 0 Z " fill="#0D0D0D" transform="translate(377,64)"/>
<path d="M0 0 C3.731066 3.16329509 5.4248808 5.70813466 8 10 C8 13.96 8 17.92 8 22 C-2.56 22 -13.12 22 -24 22 C-21.43768119 27.74781903 -21.43768119 27.74781903 -17 31 C-11.94895789 31.93913848 -7.35622639 31.56461225 -2.875 29 C-1.92625 28.34 -0.9775 27.68 0 27 C1.65 28.65 3.3 30.3 5 32 C3.2604379 35.99076012 1.32501939 37.82165828 -2.390625 40.01171875 C-8.91714842 42.48359064 -17.09992411 42.2683028 -23.5 39.4375 C-29.06203772 36.07163168 -33.03639514 31.18535531 -35 25 C-35.80101458 17.12025196 -36.10324695 10.3119107 -31 4 C-21.9071137 -5.0928863 -11.0158374 -6.48733828 0 0 Z " fill="#070708" transform="translate(619,84)"/>
<path d="M0 0 C4.91286503 2.64538886 6.92071574 4.85212198 9 10 C9.34057617 13.61865234 9.34057617 13.61865234 9.29296875 17.5859375 C9.28872391 18.28772125 9.28447906 18.989505 9.28010559 19.71255493 C9.26343599 21.9337756 9.22580872 24.15405788 9.1875 26.375 C9.17243788 27.88930973 9.15875216 29.40363381 9.14648438 30.91796875 C9.11357183 34.61227932 9.06187259 38.30604793 9 42 C5.7 42 2.4 42 -1 42 C-1 40.68 -1 39.36 -1 38 C-2.3921875 38.9590625 -2.3921875 38.9590625 -3.8125 39.9375 C-9.62107081 43.695987 -15.2461856 43.65129254 -22 43 C-25.21765341 41.81712932 -27.30286459 40.13526564 -29.125 37.16796875 C-30.72437282 33.20523699 -30.53751221 29.19123442 -30 25 C-27.8180118 20.89786218 -25.24752266 19.36432188 -21.00366211 17.60864258 C-17.53493036 16.55496301 -14.15545628 16.68429753 -10.5625 16.8125 C-9.46518555 16.83280273 -9.46518555 16.83280273 -8.34570312 16.85351562 C-6.56347578 16.88846126 -4.78163427 16.94225195 -3 17 C-3 15.02 -3 13.04 -3 11 C-6.66134614 9.32548235 -9.5423471 8.72763475 -13.5625 8.75 C-14.49191406 8.74484375 -15.42132812 8.7396875 -16.37890625 8.734375 C-19.08402644 9.00851535 -20.63169716 9.73824035 -23 11 C-23.99 11 -24.98 11 -26 11 C-26.66 8.36 -27.32 5.72 -28 3 C-18.79092857 -2.59336226 -10.2601086 -4.023572 0 0 Z " fill="#0A0A0A" transform="translate(533,82)"/>
<path d="M0 0 C6.30034213 -0.36348128 11.53997167 1.11319801 17.046875 4.18359375 C19.76249784 6.89921659 20.84092158 8.56573348 22.046875 12.18359375 C17.58347822 15.10196857 17.58347822 15.10196857 15.046875 16.18359375 C12.921875 15.62109375 12.921875 15.62109375 11.046875 14.18359375 C7.28583494 11.46728704 4.54049253 10.65653093 -0.01953125 10.8203125 C-3.09385183 11.39791212 -4.81914669 12.98494943 -6.953125 15.18359375 C-8.23272091 17.74278557 -8.12129036 19.63843403 -8.140625 22.49609375 C-8.16189453 23.91341797 -8.16189453 23.91341797 -8.18359375 25.359375 C-7.93661039 28.38596768 -7.37993842 30.50535593 -5.953125 33.18359375 C-3.04225831 34.15388265 -1.05088815 34.34827222 1.984375 34.37109375 C3.26634766 34.39236328 3.26634766 34.39236328 4.57421875 34.4140625 C7.22311785 34.16716669 8.81322885 33.60773056 11.046875 32.18359375 C11.376875 31.52359375 11.706875 30.86359375 12.046875 30.18359375 C15.39060975 30.74088288 18.08000499 31.53533264 21.046875 33.18359375 C20.82541528 37.05913881 20.10973707 38.12352555 17.234375 40.87109375 C10.15525742 46.00692415 3.57523898 46.17063283 -4.953125 45.18359375 C-11.3571926 42.81775986 -15.85238254 39.25026378 -18.953125 33.18359375 C-21.00126256 27.03918108 -21.14706826 18.83237362 -19.1171875 12.62890625 C-15.8866466 7.05676523 -10.58937046 2.48891263 -4.515625 0.30859375 C-3.00869775 0.2350851 -1.5020974 0.14119716 0 0 Z " fill="#0B0B0B" transform="translate(347.953125,79.81640625)"/>
<path d="M0 0 C3.96 0 7.92 0 12 0 C12 3.3 12 6.6 12 10 C15.63 10 19.26 10 23 10 C23 12.97 23 15.94 23 19 C19.04 19 15.08 19 11 19 C11.1405882 22.60444204 11.2872382 26.20845948 11.4375 29.8125 C11.47681641 30.83666016 11.51613281 31.86082031 11.55664062 32.91601562 C11.59853516 33.89892578 11.64042969 34.88183594 11.68359375 35.89453125 C11.72025146 36.80050049 11.75690918 37.70646973 11.79467773 38.63989258 C11.9208205 41.15048782 11.9208205 41.15048782 13 44 C15.97 44 18.94 44 22 44 C25 49.75 25 49.75 25 52 C20.21407 54.80864437 15.40267037 54.64205648 10 54 C4.85146319 51.4257316 1.817992 48.45397599 0 43 C-0.08239169 41.15389468 -0.10743359 39.30494836 -0.09765625 37.45703125 C-0.09443359 36.38388672 -0.09121094 35.31074219 -0.08789062 34.20507812 C-0.07951172 33.08552734 -0.07113281 31.96597656 -0.0625 30.8125 C-0.05798828 29.68134766 -0.05347656 28.55019531 -0.04882812 27.38476562 C-0.03703498 24.58979073 -0.0205765 21.7949218 0 19 C-2.31 19 -4.62 19 -7 19 C-7 16.03 -7 13.06 -7 10 C-4.69 10 -2.38 10 0 10 C0 6.7 0 3.4 0 0 Z " fill="#0E0E0E" transform="translate(555,71)"/>
<path d="M0 0 C3.73738736 1.66106105 5.85257708 3.54597609 8 7 C8.73929819 11.86342241 8.61279817 16.49864447 6.75 21.0625 C4.32307916 23.74944807 2.1807267 24.81761132 -1.40234375 25.37109375 C-8.27030508 25.55099412 -8.27030508 25.55099412 -12.0625 22.6875 C-15.55414492 17.84425059 -15.82857377 12.80001636 -15 7 C-11.5479341 0.55957855 -6.96876324 -0.75048219 0 0 Z " fill="#F7F7F7" transform="translate(302,90)"/>
<path d="M0 0 C0.66 0.99 1.32 1.98 2 3 C2.66 3 3.32 3 4 3 C0.4929224 15.03922162 -9.08667107 22.53129661 -19.65625 28.5 C-30.03844654 33.63002652 -43.38491111 36.7892084 -55 36 C-56.86328125 34.5078125 -56.86328125 34.5078125 -58 33 C-57.34 33 -56.68 33 -56 33 C-56 32.01 -56 31.02 -56 30 C-56.99 29.67 -57.98 29.34 -59 29 C-57.91203125 28.96261719 -56.8240625 28.92523438 -55.703125 28.88671875 C-38.18666566 28.1606168 -23.26154384 24.75822903 -10.125 12.31640625 C-7.64531233 9.61336436 -5.75306139 6.86222581 -4.03515625 3.62890625 C-3 2 -3 2 0 0 Z " fill="#F2F2F2" transform="translate(156,106)"/>
<path d="M0 0 C0.33 0 0.66 0 1 0 C1 3.3 1 6.6 1 10 C-1.97 10 -4.94 10 -8 10 C-8.04125 10.7425 -8.0825 11.485 -8.125 12.25 C-9 15 -9 15 -11.4375 17.3125 C-16.10824644 19.52495884 -19.91736707 19.95556794 -25 19 C-27.78629239 17.63208181 -28.89331839 16.43078648 -31 14 C-31.33 12.35 -31.66 10.7 -32 9 C-21.44 9 -10.88 9 0 9 C0 6.03 0 3.06 0 0 Z " fill="#E5E5E5" transform="translate(627,97)"/>
<path d="M0 0 C4.28867516 3.28494268 4.91138733 4.55693663 6 10 C-1.59 10 -9.18 10 -17 10 C-14.66666667 3 -14.66666667 3 -11 0 C-7.14204888 -1.28598371 -3.86243456 -1.09925038 0 0 Z " fill="#E6E6E7" transform="translate(611,90)"/>
<path d="M0 0 C1.90845703 0.04060547 1.90845703 0.04060547 3.85546875 0.08203125 C5.31919922 0.13423828 5.31919922 0.13423828 6.8125 0.1875 C6.5841978 4.14473818 6.36227482 6.51746194 3.8125 9.625 C-0.14023089 11.68371401 -3.80349432 12.09878208 -8.1875 11.1875 C-9.96875 9.81640625 -9.96875 9.81640625 -11.1875 8.1875 C-11.05222323 5.48196462 -10.59434177 3.79273105 -9.08203125 1.54296875 C-6.14903241 -0.55548609 -3.54164821 -0.09747656 0 0 Z " fill="#F0F0F0" transform="translate(524.1875,105.8125)"/>
<path d="M0 0 C2.01803703 2.69071604 3.89679003 5.29643109 5.6875 8.125 C6.12449219 8.80820313 6.56148437 9.49140625 7.01171875 10.1953125 C8 12 8 12 8 14 C6.02 14.33 4.04 14.66 2 15 C1.67 20.94 1.34 26.88 1 33 C0.67 33 0.34 33 0 33 C0 22.11 0 11.22 0 0 Z " fill="#EEEEEE" transform="translate(214,89)"/>
<path d="M0 0 C0.33 0.99 0.66 1.98 1 3 C1.391875 2.484375 1.78375 1.96875 2.1875 1.4375 C2.785625 0.963125 3.38375 0.48875 4 0 C6.6875 0.3125 6.6875 0.3125 9 1 C5.29909479 4.9252025 1.45040344 7.94580156 -3 11 C-3 9 -3 7 -3 5 C-3.99 4.67 -4.98 4.34 -6 4 C-4.02 2.68 -2.04 1.36 0 0 Z " fill="#E4E4E4" transform="translate(142,122)"/>
<path d="M0 0 C-0.66 2.64 -1.32 5.28 -2 8 C-1.34 8 -0.68 8 0 8 C0 8.66 0 9.32 0 10 C-1.65 10.33 -3.3 10.66 -5 11 C-5.66 8.36 -6.32 5.72 -7 3 C-2.25 0 -2.25 0 0 0 Z " fill="#141413" transform="translate(512,82)"/>
<path d="M0 0 C2.83328987 2.83328987 3.7191375 4.35446828 5 8 C4.01 8.33 3.02 8.66 2 9 C1.34 9.99 0.68 10.98 0 12 C0 8.04 0 4.08 0 0 Z " fill="#DFDFE1" transform="translate(441,89)"/>
<path d="M0 0 C1.32 0.33 2.64 0.66 4 1 C4 1.66 4 2.32 4 3 C2.02 3.99 0.04 4.98 -2 6 C-1.34 4.02 -0.68 2.04 0 0 Z " fill="#EAEAEA" transform="translate(140,127)"/>
<path d="M0 0 C0.66 0.33 1.32 0.66 2 1 C0.68 3.31 -0.64 5.62 -2 8 C-2.66 7.01 -3.32 6.02 -4 5 C-2.68 3.35 -1.36 1.7 0 0 Z " fill="#1F1F20" transform="translate(152,107)"/>
</svg>
