<?xml version="1.0" encoding="utf-8"?>
<!-- Generator: Adobe Illustrator 27.5.0, SVG Export Plug-In . SVG Version: 6.00 Build 0)  -->
<svg version="1.1" xmlns="http://www.w3.org/2000/svg" xmlns:xlink="http://www.w3.org/1999/xlink" x="0px" y="0px"
	 viewBox="0 0 500 500" style="enable-background:new 0 0 500 500;" xml:space="preserve">
<g id="BACKGROUND">
	<g>
		<rect style="fill:#FFFFFF;" width="500" height="500"/>
		<rect y="412.565" style="fill:#EAEFF8;" width="500" height="87.435"/>
		<g>
			<g>
				
					<rect x="419.508" y="276.203" style="fill:none;stroke:#EAEFF8;stroke-width:2;stroke-miterlimit:10;" width="36.147" height="18.073"/>
				<g>
					<polyline style="fill:none;stroke:#EAEFF8;stroke-width:2;stroke-miterlimit:10;" points="437.571,257.727 437.571,275.8 
						401.425,275.8 					"/>
					<polyline style="fill:none;stroke:#EAEFF8;stroke-width:2;stroke-miterlimit:10;" points="473.739,275.8 437.592,275.8 
						437.592,257.727 					"/>
				</g>
				<g>
					<polyline style="fill:none;stroke:#EAEFF8;stroke-width:2;stroke-miterlimit:10;" points="401.425,294.425 437.571,294.425 
						437.571,312.498 					"/>
					<polyline style="fill:none;stroke:#EAEFF8;stroke-width:2;stroke-miterlimit:10;" points="437.592,312.498 437.592,294.425 
						473.739,294.425 					"/>
				</g>
			</g>
		</g>
		<g>
			<g>
				
					<rect x="36.11" y="198.555" style="fill:none;stroke:#EAEFF8;stroke-width:2;stroke-miterlimit:10;" width="36.147" height="18.073"/>
				<g>
					<polyline style="fill:none;stroke:#EAEFF8;stroke-width:2;stroke-miterlimit:10;" points="54.174,180.079 54.174,198.152 
						18.027,198.152 					"/>
					<polyline style="fill:none;stroke:#EAEFF8;stroke-width:2;stroke-miterlimit:10;" points="90.341,198.152 54.194,198.152 
						54.194,180.079 					"/>
				</g>
				<g>
					<polyline style="fill:none;stroke:#EAEFF8;stroke-width:2;stroke-miterlimit:10;" points="18.027,216.777 54.174,216.777 
						54.174,234.85 					"/>
					<polyline style="fill:none;stroke:#EAEFF8;stroke-width:2;stroke-miterlimit:10;" points="54.194,234.85 54.194,216.777 
						90.341,216.777 					"/>
				</g>
			</g>
		</g>
	</g>
</g>
<g id="OBJECTS">
	<g>
		<g>
			<g>
				<rect x="41.819" y="37.717" style="fill:#EAEFF8;" width="136.36" height="127.374"/>
				<path style="fill:#A6B1FC;" d="M177.124,38.773v125.263H42.875V38.773H177.124 M179.235,36.662h-2.111H42.875h-2.111v2.111
					v125.263v2.111h2.111h134.249h2.111v-2.111V38.773V36.662L179.235,36.662z"/>
			</g>
			<g>
				<g>
					<rect x="71.062" y="57.146" style="fill:#A6B1FC;" width="77.874" height="9.591"/>
				</g>
				<g>
					<rect x="61.306" y="81.288" style="fill:#C9D0FF;" width="96.092" height="5.291"/>
				</g>
				<g>
					<rect x="61.306" y="93.194" style="fill:#C9D0FF;" width="96.092" height="5.291"/>
				</g>
				<g>
					<rect x="61.306" y="105.099" style="fill:#C9D0FF;" width="96.092" height="5.291"/>
				</g>
				<g>
					<rect x="61.306" y="117.005" style="fill:#C9D0FF;" width="44.159" height="5.291"/>
				</g>
				<rect x="113.761" y="116.561" style="fill:#C9D0FF;" width="43.638" height="34.622"/>
			</g>
			<g>
				<path style="fill:#A6B1FC;" d="M41.623,40.026v-8.759c0-6.388,5.197-11.585,11.585-11.585h113.583
					c6.388,0,11.585,5.197,11.585,11.585v8.759H41.623z"/>
				<path style="fill:#A6B1FC;" d="M166.791,20.934c5.707,0,10.333,4.626,10.333,10.333v7.507H42.875v-7.507
					c0-5.707,4.626-10.333,10.333-10.333H166.791 M166.791,18.428H53.208c-7.079,0-12.838,5.759-12.838,12.838v7.507v2.505h2.505
					h134.249h2.505v-2.505v-7.507C179.629,24.188,173.87,18.428,166.791,18.428L166.791,18.428z"/>
			</g>
			<path style="fill:#FC678A;" d="M58.427,28.696c0,2.399-1.944,4.343-4.343,4.343c-2.399,0-4.343-1.944-4.343-4.343
				c0-2.399,1.944-4.343,4.343-4.343C56.483,24.353,58.427,26.297,58.427,28.696z"/>
			<path style="fill:#4BEBAD;" d="M75.799,28.696c0,2.399-1.944,4.343-4.343,4.343c-2.399,0-4.343-1.944-4.343-4.343
				c0-2.399,1.944-4.343,4.343-4.343C73.855,24.353,75.799,26.297,75.799,28.696z"/>
			<path style="fill:#FFFFFF;" d="M93.171,28.696c0,2.399-1.944,4.343-4.343,4.343c-2.399,0-4.343-1.944-4.343-4.343
				c0-2.399,1.944-4.343,4.343-4.343C91.226,24.353,93.171,26.297,93.171,28.696z"/>
		</g>
		<g>
			<g>
				<g>
					<rect x="244.471" y="62.062" style="fill:#EAEFF8;" width="224.046" height="153.184"/>
					<path style="fill:#A6B1FC;" d="M467.462,63.118V214.19H245.527V63.118H467.462 M469.574,61.006h-2.111H245.527h-2.111v2.111
						V214.19v2.111h2.111h221.935h2.111v-2.111V63.118V61.006L469.574,61.006z"/>
				</g>
				<g>
					<path style="fill:#A6B1FC;" d="M244.275,64.37v-8.759c0-6.388,5.197-11.585,11.585-11.585h201.27
						c6.389,0,11.586,5.197,11.586,11.585v8.759H244.275z"/>
					<path style="fill:#A6B1FC;" d="M457.13,45.278c5.707,0,10.333,4.626,10.333,10.333v7.507H245.527v-7.507
						c0-5.707,4.626-10.333,10.333-10.333H457.13 M457.13,42.773H255.86c-7.079,0-12.838,5.759-12.838,12.838v7.507v2.505h2.505
						h221.935h2.505v-2.505v-7.507C469.967,48.532,464.208,42.773,457.13,42.773L457.13,42.773z"/>
				</g>
				<path style="fill:#FC678A;" d="M261.079,53.041c0,2.399-1.944,4.343-4.343,4.343c-2.398,0-4.343-1.944-4.343-4.343
					c0-2.398,1.944-4.343,4.343-4.343C259.135,48.698,261.079,50.642,261.079,53.041z"/>
				<path style="fill:#4BEBAD;" d="M278.451,53.041c0,2.399-1.944,4.343-4.343,4.343c-2.399,0-4.343-1.944-4.343-4.343
					c0-2.398,1.944-4.343,4.343-4.343C276.506,48.698,278.451,50.642,278.451,53.041z"/>
				<path style="fill:#FFFFFF;" d="M295.823,53.041c0,2.399-1.944,4.343-4.343,4.343s-4.343-1.944-4.343-4.343
					c0-2.398,1.944-4.343,4.343-4.343S295.823,50.642,295.823,53.041z"/>
			</g>
			<g>
				<g>
					<path style="fill:#1C2533;" d="M322.563,214.19c-1.11-7.709-6.641-45.924-7.226-45.845c-1.079,0.146-1.916,1.431-2.82,3.346
						c-0.736,1.56-1.301,3.195-1.744,4.878c-0.674,2.558-6.707,31.072-8.091,37.621H322.563z"/>
					<path style="fill:#1C2533;" d="M406.941,214.19c-1.384-6.549-7.417-35.063-8.091-37.621c-0.443-1.683-1.008-3.318-1.744-4.878
						c-0.904-1.915-1.804-3.08-2.883-3.226c-0.585-0.079-6.064,38.028-7.164,45.725H406.941z"/>
					<g>
						<g>
							<path style="fill:#FFB2A3;" d="M319.303,183.127l-2.079-14.764l22.973-10.442c2.889-1.314,4.823-4.063,5.048-7.175
								l1.298-17.908l17.24,0.049l1.494,18.23c0.242,2.956,1.994,5.54,4.688,6.913l22.884,11.657l-1.609,13.439H319.303z"/>
							<path style="fill:#EF7D6E;" d="M347.109,133.45l16.111,0.046l1.448,17.672c0.259,3.169,2.136,5.938,5.019,7.407
								l22.504,11.464l-1.495,12.478h-70.864l-1.942-13.787l22.557-10.254c3.092-1.406,5.163-4.351,5.405-7.686L347.109,133.45
								 M345.975,132.226l-1.338,18.475c-0.21,2.89-2.006,5.442-4.693,6.663l-23.388,10.632l2.217,15.74h73.007l1.725-14.399
								l-23.263-11.851c-2.487-1.267-4.133-3.685-4.357-6.419c-0.55-6.717-1.539-18.789-1.539-18.789L345.975,132.226
								L345.975,132.226z"/>
						</g>
						<path style="fill:#EF7D6E;" d="M345.444,143.712c6.058,6.451,13.813,5.402,19.921,1.016c-0.497-6.066-1.02-12.449-1.02-12.449
							l-18.371-0.053l-0.82,11.321C345.255,143.571,345.354,143.616,345.444,143.712z"/>
						<path style="fill:#CCCCCC;" d="M388.132,214.19l5.373-44.852l-23.263-11.851c-2.06-1.049-3.529-2.894-4.104-5.048h-21.844
							c-0.664,2.147-2.219,3.958-4.349,4.926l-23.388,10.632l6.506,46.193H388.132z"/>
						<g>
							<polygon style="fill:#2D3644;" points="358.451,211.658 360.054,202.809 355.832,158.95 354.51,158.95 350.288,202.809 
								351.891,211.658 							"/>
							<polygon style="fill:#2D3644;" points="358.021,152.62 352.321,152.62 347.936,157.005 355.171,164.239 362.405,157.005 
															"/>
							<g>
								<polygon style="fill:#F2F2F2;" points="344.533,148.807 355.109,152.661 347.087,164.134 339.86,157.365 								"/>
								<polygon style="fill:#F2F2F2;" points="365.809,148.807 355.233,152.661 363.255,164.134 370.482,157.365 								"/>
							</g>
						</g>
						<polygon style="fill:#2D3644;" points="389.789,214.19 394.223,168.465 371.766,156.128 355.136,205.236 338.574,156.153 
							315.337,168.345 320.02,214.19 						"/>
						<polygon style="fill:#49566B;" points="338.574,156.153 331.889,163.917 340.431,172.459 332.536,174.012 355.136,205.236 
													"/>
						<polygon style="fill:#49566B;" points="371.766,156.128 378.452,163.892 369.91,172.434 377.804,173.987 355.136,205.236 
													"/>
					</g>
				</g>
				<g>
					<g>
						
							<path style="fill:#FFB2A3;stroke:#EF7D6E;stroke-width:1.1395;stroke-linecap:round;stroke-linejoin:round;stroke-miterlimit:10;" d="
							M379.381,110.104c1.372,0.522,2.14,2.268,2.295,3.912c0.4,4.237-1.037,8.608-3.891,11.84c-0.465,0.526-0.98,1.034-1.629,1.324
							c-4.461,1.998-2.764-10.624-2.318-12.581C374.331,112.438,376.563,109.033,379.381,110.104z"/>
						
							<path style="fill:#FFB2A3;stroke:#EF7D6E;stroke-width:1.1395;stroke-linecap:round;stroke-linejoin:round;stroke-miterlimit:10;" d="
							M379.358,114.947c-0.063-0.302-0.128-0.61-0.291-0.874c-0.162-0.264-0.444-0.481-0.761-0.486
							c-0.592-0.01-0.927,0.644-1.086,1.197c-0.415,1.439-0.631,2.933-0.642,4.427c0.098-0.162,0.353-0.174,0.513-0.067
							c0.16,0.106,0.241,0.292,0.295,0.472c0.418,1.4-0.57,3.041-2.033,3.376"/>
					</g>
					<g>
						
							<path style="fill:#FFB2A3;stroke:#EF7D6E;stroke-width:1.1395;stroke-linecap:round;stroke-linejoin:round;stroke-miterlimit:10;" d="
							M332.027,109.97c-1.375,0.514-2.154,2.256-2.319,3.899c-0.425,4.235,0.985,8.614,3.819,11.861
							c0.462,0.529,0.974,1.039,1.621,1.333c4.449,2.023,2.828-10.608,2.394-12.568C337.062,112.332,334.85,108.914,332.027,109.97z
							"/>
						
							<path style="fill:#FFB2A3;stroke:#EF7D6E;stroke-width:1.1395;stroke-linecap:round;stroke-linejoin:round;stroke-miterlimit:10;" d="
							M332.02,114.813c0.064-0.301,0.132-0.609,0.296-0.873c0.164-0.264,0.447-0.479,0.764-0.482
							c0.592-0.006,0.923,0.649,1.079,1.203c0.406,1.442,0.614,2.936,0.615,4.431c-0.097-0.162-0.352-0.176-0.512-0.07
							c-0.16,0.106-0.243,0.29-0.298,0.47c-0.427,1.398,0.552,3.045,2.013,3.388"/>
					</g>
					
						<path style="fill:#FFB2A3;stroke:#EF7D6E;stroke-width:1.1395;stroke-linecap:round;stroke-linejoin:round;stroke-miterlimit:10;" d="
						M335.092,109.017c0.208-3.377,0.746-6.758,1.595-9.893c1.347-4.973,4.388-9.565,9.063-12.096
						c5.163-2.795,11.4-3.326,17.013-2.099c4.143,0.906,8.102,3.164,10.519,6.67c2.574,3.733,2.815,9.366,3.178,13.769
						c0.535,6.486-0.023,13.096-1.71,19.393c-1.376,5.134-3.663,10.235-7.319,14.202c-2.882,3.127-6.753,5.48-11.08,5.588
						c-0.683,0.017-1.366-0.021-2.041-0.109c-4.778-0.63-8.714-3.773-11.544-7.444c-4.231-5.489-6.663-12.499-7.47-19.418
						C334.977,114.834,334.912,111.927,335.092,109.017z"/>
					<path style="fill:#EF7D6E;" d="M352.513,92.444c3.549,3.044,4.955,7.254,8.596,10.255c4.291,3.537,10.054,5.002,15.448,4.257
						c-0.029-0.53-0.054-1.06-0.097-1.588c-0.363-4.403-0.604-10.036-3.178-13.769c-2.417-3.506-6.376-5.765-10.519-6.67
						c-5.613-1.227-11.532-0.68-17.025,1.444c-2.001,0.774-2.02,3.167-2.725,3.714C346.253,89.659,350.13,90.4,352.513,92.444z"/>
					<g>
						<g>
							<path style="fill:#2D3644;" d="M380.172,105.186c1.006-6.624,1.303-13.444-1.386-19.731
								c-2.306-5.391-6.811-9.818-12.243-12.292c-2.91-1.325-6.168-1.58-9.359-1.821c-3.675-0.277-7.394-0.016-10.987,0.785
								c-2.038,0.454-4.076,1.099-5.756,2.305c-1.427,1.024-2.166,2.272-2.851,3.81c-0.749,1.681-2.147,0.776-3.282,2.097
								c-0.756,0.881-0.942,2.082-1.099,3.218c-0.63,4.555-1.803,9.344-1.923,13.935c-0.044,1.684,0.221,3.468,0.273,5.176
								c0.07,2.299,0.268,3.998,0.733,6.255c0.519-0.052,1.099,0.033,1.546,0.2c0.309,1.733,0.64,7.859,0.64,7.859h2.206
								c0,0-0.272-6.123-0.219-7.085c0.142-2.578-0.515-5.195,1.392-7.176c1.458-1.515,6.249-7.07,5.472-12.573
								c4.102-0.968,7.656-1.44,11.559,0.624c3.376,1.786,6.056,4.563,9.039,6.917c2.983,2.354,7.481,4.256,11.321,4.054
								c0.009,2.774-0.341,15.239-0.341,15.239h1.896l0.712-4.056c0,0,0.173-4.065,2.267-3.769
								C380.08,107.565,379.925,106.812,380.172,105.186z"/>
						</g>
					</g>
					<g>
						
							<path style="fill:#FFB2A3;stroke:#EF7D6E;stroke-width:1.1395;stroke-linecap:round;stroke-linejoin:round;stroke-miterlimit:10;" d="
							M356.068,126.617c-0.959-0.32-1.993-0.695-2.527-1.531c-0.503-0.789-0.432-1.787-0.344-2.711
							c0.336-3.52,0.671-7.039,1.007-10.558"/>
						
							<path style="fill:none;stroke:#EF7D6E;stroke-width:1.1395;stroke-linecap:round;stroke-linejoin:round;stroke-miterlimit:10;" d="
							M349.789,132.054c2.556,1.438,7.667,1.757,10.861,0.16"/>
						<g>
							<path style="fill:#2D3644;" d="M345.606,116.956c-2.493-0.274-2.058-4.033,0.439-3.758
								C348.539,113.473,348.103,117.231,345.606,116.956L345.606,116.956z"/>
						</g>
						<g>
							<path style="fill:#2D3644;" d="M338.597,109.511c1.786-0.552,3.549-1.15,5.448-1.16c1.958-0.01,3.62,0.565,5.441,1.175
								c0.625,0.209,0.953-0.672,0.437-0.997c-3.27-2.064-8.516-2.021-11.626,0.286
								C337.974,109.054,338.133,109.654,338.597,109.511L338.597,109.511z"/>
						</g>
						<g>
							<path style="fill:#2D3644;" d="M364.982,117.016c2.495-0.26,2.082-4.021-0.417-3.76
								C362.07,113.515,362.483,117.276,364.982,117.016L364.982,117.016z"/>
						</g>
						<g>
							<path style="fill:#2D3644;" d="M372.34,108.916c-3.098-2.325-8.342-2.397-11.625-0.352c-0.512,0.319-0.202,1.207,0.431,1
								c1.835-0.603,3.468-1.195,5.448-1.144c1.897,0.049,3.654,0.627,5.441,1.19C372.495,109.755,372.664,109.159,372.34,108.916
								L372.34,108.916z"/>
						</g>
					</g>
					<g>
						<path style="fill:none;stroke:#2D3644;stroke-width:0.6229;stroke-miterlimit:10;" d="M338.066,119.412v-6.198
							c0-1.121,0.909-2.03,2.03-2.03h10.157c1.121,0,2.03,0.909,2.03,2.03v6.198c0,2.52-2.043,4.563-4.563,4.563h-5.092
							C340.109,123.975,338.066,121.932,338.066,119.412z"/>
						<path style="fill:none;stroke:#2D3644;stroke-width:0.6229;stroke-miterlimit:10;" d="M358.387,119.412v-6.198
							c0-1.121,0.909-2.03,2.03-2.03h10.157c1.121,0,2.03,0.909,2.03,2.03v6.198c0,2.52-2.043,4.563-4.563,4.563h-5.092
							C360.43,123.975,358.387,121.932,358.387,119.412z"/>
						
							<line style="fill:none;stroke:#2D3644;stroke-width:0.6229;stroke-miterlimit:10;" x1="352.101" y1="112.598" x2="358.245" y2="112.598"/>
						
							<line style="fill:none;stroke:#2D3644;stroke-width:0.6229;stroke-miterlimit:10;" x1="372.396" y1="112.524" x2="377.044" y2="112.524"/>
						
							<line style="fill:none;stroke:#2D3644;stroke-width:0.6229;stroke-miterlimit:10;" x1="338.312" y1="112.524" x2="335.213" y2="112.524"/>
					</g>
				</g>
			</g>
			<g>
				<g>
					
						<ellipse transform="matrix(0.2289 -0.9735 0.9735 0.2289 61.6239 476.2017)" style="fill:#FC678A;" cx="331.389" cy="199.204" rx="8.886" ry="8.886"/>
					<g>
						<rect x="324.968" y="200.573" style="fill:#FFFFFF;" width="3.52" height="1.126"/>
						<rect x="334.289" y="200.573" style="fill:#FFFFFF;" width="3.52" height="1.126"/>
						<path style="fill:none;stroke:#FFFFFF;stroke-width:1.9646;stroke-miterlimit:10;" d="M326.728,199.834
							c0-2.605,2.112-3.125,4.717-3.125c2.605,0,4.717,0.52,4.717,3.125"/>
					</g>
				</g>
				<g>
					
						<ellipse transform="matrix(0.7071 -0.7071 0.7071 0.7071 -29.0903 328.1781)" style="fill:#4BEBAD;" cx="381.601" cy="199.204" rx="8.886" ry="8.886"/>
					<g>
						
							<rect x="377.909" y="193.98" transform="matrix(-1.836970e-16 1 -1 -1.836970e-16 574.2124 -185.1255)" style="fill:#FFFFFF;" width="3.52" height="1.126"/>
						
							<rect x="377.909" y="203.302" transform="matrix(-1.836970e-16 1 -1 -1.836970e-16 583.5338 -175.8041)" style="fill:#FFFFFF;" width="3.52" height="1.126"/>
						<path style="fill:none;stroke:#FFFFFF;stroke-width:1.9646;stroke-miterlimit:10;" d="M380.971,194.543
							c2.605,0,3.125,2.112,3.125,4.717c0,2.605-0.52,4.717-3.125,4.717"/>
					</g>
				</g>
			</g>
		</g>
		<g>
			<g>
				<rect x="143.299" y="114.105" style="fill:#EAEFF8;" width="116.36" height="127.374"/>
				<path style="fill:#A6B1FC;" d="M258.604,115.161v125.263H144.355V115.161H258.604 M260.715,113.049h-2.111H144.355h-2.111v2.111
					v125.263v2.111h2.111h114.249h2.111v-2.111V115.161V113.049L260.715,113.049z"/>
			</g>
			<g>
				<g>
					<rect x="172.542" y="133.534" style="fill:#A6B1FC;" width="57.874" height="9.591"/>
				</g>
				<g>
					<rect x="162.786" y="157.676" style="fill:#C9D0FF;" width="77.386" height="5.291"/>
				</g>
				<g>
					<rect x="162.786" y="169.581" style="fill:#C9D0FF;" width="77.386" height="5.291"/>
				</g>
				<g>
					<rect x="162.786" y="181.487" style="fill:#C9D0FF;" width="77.386" height="5.291"/>
				</g>
				<g>
					<rect x="162.786" y="193.393" style="fill:#C9D0FF;" width="77.386" height="5.291"/>
				</g>
				<g>
					<rect x="162.786" y="205.298" style="fill:#C9D0FF;" width="77.386" height="5.291"/>
				</g>
			</g>
			<g>
				<path style="fill:#A6B1FC;" d="M143.102,116.413v-8.759c0-6.388,5.197-11.585,11.586-11.585h93.583
					c6.389,0,11.586,5.197,11.586,11.585v8.759H143.102z"/>
				<path style="fill:#A6B1FC;" d="M248.271,97.321c5.707,0,10.333,4.626,10.333,10.333v7.507H144.355v-7.507
					c0-5.707,4.626-10.333,10.333-10.333H248.271 M248.271,94.816h-93.583c-7.079,0-12.838,5.759-12.838,12.838v7.507v2.505h2.505
					h114.249h2.505v-2.505v-7.507C261.109,100.575,255.35,94.816,248.271,94.816L248.271,94.816z"/>
			</g>
			<path style="fill:#FC678A;" d="M159.907,105.084c0,2.399-1.944,4.343-4.343,4.343c-2.399,0-4.343-1.944-4.343-4.343
				c0-2.398,1.944-4.343,4.343-4.343C157.962,100.741,159.907,102.685,159.907,105.084z"/>
			<path style="fill:#4BEBAD;" d="M177.279,105.084c0,2.399-1.944,4.343-4.343,4.343c-2.398,0-4.343-1.944-4.343-4.343
				c0-2.398,1.944-4.343,4.343-4.343C175.334,100.741,177.279,102.685,177.279,105.084z"/>
			<path style="fill:#FFFFFF;" d="M194.65,105.084c0,2.399-1.944,4.343-4.343,4.343c-2.398,0-4.343-1.944-4.343-4.343
				c0-2.398,1.944-4.343,4.343-4.343C192.706,100.741,194.65,102.685,194.65,105.084z"/>
		</g>
	</g>
	<g>
		<ellipse style="fill:#DFE8F8;" cx="242.777" cy="460.581" rx="157.867" ry="15.44"/>
		<g>
			<g>
				<g>
					<polygon style="fill:#D5DCF2;" points="330.496,272.486 248.583,272.486 262.649,221.062 344.562,221.062 					"/>
				</g>
				<path style="fill:#000540;" d="M299.999,222.233c0,0.301-0.244,0.545-0.545,0.545c-0.301,0-0.545-0.244-0.545-0.545
					c0-0.301,0.244-0.545,0.545-0.545C299.755,221.688,299.999,221.932,299.999,222.233z"/>
				<polygon style="fill:#000540;" points="328.315,269.938 252.159,269.938 264.83,223.61 340.987,223.61 				"/>
				<g>
					<g>
						<g>
							<polygon style="fill:#EAEFF8;" points="260.454,254.532 267.396,229.149 308.483,229.149 301.541,254.532 							"/>
							<path style="fill:#A6B1FC;" d="M307.792,229.677l-6.654,24.328h-39.992l6.654-24.328H307.792 M309.175,228.621h-1.383H267.8
								h-0.806l-0.213,0.777l-6.654,24.328l-0.365,1.334h1.383h39.992h0.806l0.213-0.777l6.654-24.328L309.175,228.621
								L309.175,228.621z"/>
						</g>
						<g>
							<polygon style="fill:#A6B1FC;" points="292.092,247.907 294.456,239.264 274.134,239.264 271.77,247.907 							"/>
						</g>
						<g>
							
								<line style="fill:none;stroke:#A6B1FC;stroke-width:2.1112;stroke-miterlimit:10;" x1="271.605" y1="235.931" x2="300.054" y2="235.931"/>
						</g>
					</g>
					<g>
						<polygon style="fill:#EAEFF8;" points="277.74,265.425 284.683,240.042 325.769,240.042 318.828,265.425 						"/>
						<path style="fill:#A6B1FC;" d="M325.079,240.57l-6.654,24.328h-39.992l6.654-24.328H325.079 M326.462,239.514h-1.383h-39.992
							h-0.806l-0.213,0.777l-6.654,24.328l-0.365,1.334h1.383h39.992h0.806l0.213-0.777l6.654-24.328L326.462,239.514
							L326.462,239.514z"/>
					</g>
					<g>
						<polygon style="fill:#A6B1FC;" points="309.379,258.8 311.743,250.157 291.421,250.157 289.057,258.8 						"/>
					</g>
					<g>
						
							<line style="fill:none;stroke:#A6B1FC;stroke-width:2.1112;stroke-miterlimit:10;" x1="288.892" y1="246.824" x2="317.34" y2="246.824"/>
					</g>
				</g>
				<linearGradient id="SVGID_1_" gradientUnits="userSpaceOnUse" x1="344.6396" y1="155.5312" x2="289.5821" y2="283.7619">
					<stop  offset="0" style="stop-color:#FFFFFF"/>
					<stop  offset="1" style="stop-color:#FFFFFF;stop-opacity:0"/>
				</linearGradient>
				<path style="fill:url(#SVGID_1_);" d="M328.468,269.379l1.008-3.684c-14.029-14.028-28.057-28.057-42.086-42.085h-4.692
					L328.468,269.379z"/>
				
					<linearGradient id="SVGID_00000142135100598394541290000000840190629984613013_" gradientUnits="userSpaceOnUse" x1="351.3256" y1="158.4017" x2="296.2681" y2="286.6324">
					<stop  offset="0" style="stop-color:#FFFFFF"/>
					<stop  offset="1" style="stop-color:#FFFFFF;stop-opacity:0"/>
				</linearGradient>
				<polygon style="fill:url(#SVGID_00000142135100598394541290000000840190629984613013_);" points="332.344,255.21 
					340.987,223.61 300.744,223.61 				"/>
			</g>
			<g>
				<path style="fill:#AFBADB;" d="M227.245,278.432H328.06v-5.816h-96.167c-2.567,0-4.648,2.081-4.648,4.648V278.432z"/>
				<path style="fill:#8B9BCC;" d="M304.894,277.039v1.393h23.165v-5.816h-18.742C306.875,272.616,304.894,274.596,304.894,277.039z
					"/>
			</g>
			<g>
				<g>
					<rect x="314.318" y="285.505" style="fill:#A6B1FC;" width="61.999" height="171.708"/>
					<rect x="314.318" y="285.505" style="fill:#D4D9FF;" width="8.338" height="171.708"/>
					<polygon style="fill:#5B6AD4;" points="314.318,291.521 322.656,291.521 376.317,285.505 314.318,285.505 					"/>
				</g>
				<g>
					<rect x="179.152" y="285.505" style="fill:#A6B1FC;" width="62" height="171.708"/>
					<rect x="179.152" y="285.505" style="fill:#D4D9FF;" width="8.339" height="171.708"/>
					<polygon style="fill:#5B6AD4;" points="179.152,291.521 187.49,291.521 241.151,285.505 179.152,285.505 					"/>
				</g>
				<g>
					<rect x="158.824" y="278.703" style="fill:#A6B1FC;" width="229.828" height="6.858"/>
					<rect x="304.555" y="278.703" style="fill:#5B6AD4;" width="84.097" height="6.858"/>
				</g>
			</g>
			<g>
				<path style="fill:#522525;" d="M153.114,152.055c-0.012-0.128-0.015-0.257-0.029-0.385c-0.067-0.607-0.156-1.212-0.274-1.813
					c-1-5.108-6.068-15.266-12.744-12.407c-3.846,1.647-8.198,5.887-10.689,9.215c-3.047,4.071-3.376,10.728-2.855,15.557
					c0.637,5.914,2.532,30.026,5.13,35.377c5.047,10.393,13.557,29.057,20.885,37.884c0.601-15.423,0.04-58.8,0.576-75.115V152.055z
					"/>
				<rect x="100.453" y="157.238" style="fill:#522525;" width="23.912" height="96.633"/>
				<g>
					<path style="fill:#000540;" d="M219.02,278.703c0,0-0.365-10.373,13.302-10.373c13.667,0,15.033,8.446,15.033,10.373
						C247.355,278.703,218.434,278.117,219.02,278.703z"/>
					<g>
						
							<path style="fill:#FFB2A3;stroke:#EF7D6E;stroke-width:1.2476;stroke-linecap:round;stroke-linejoin:round;stroke-miterlimit:10;" d="
							M207.935,271.765l10.593-8.541l13.591,2.34l7.605,4.818c0,0,4.647,5.523,5.318,5.509c0.67-0.014-0.118,1.347-2.729,1.3
							c-2.612-0.047-5.958-4.057-5.958-4.057l-6.587-2.91c0,0-6.385-1.063-7.676-0.384c-1.291,0.679,1.889,4.529,1.889,4.529
							l5.702-0.444c0,0,3.847-1.349,5.532-0.768c1.684,0.581,1.046,3.241,1.046,3.241l-2.421,1.264l-25.123,0.224L207.935,271.765z"
							/>
					</g>
					<g>
						<path style="fill:#201923;" d="M149.169,220.357l19.797,35.633l42.978,8.876l0.411,13.652c0,0-43.103,0.866-45.443-0.055
							c-2.34-0.921-45.051-34.997-45.051-34.997L149.169,220.357z"/>
					</g>
				</g>
				<g>
					<g>
						<g>
							<g>
								<g>
									<path style="fill:#FFB2A3;" d="M254.578,444.29c-1.26,0-2.913-0.508-4.915-1.509c-0.561-0.28-1.242-0.575-2.001-0.904
										c-4.204-1.819-10.536-4.559-12.023-11.462c1.271-2.323,0.172-7.015,0.124-7.22c-0.108-0.307-8.633-23.609-9.96-27.996
										c1.827-0.611,9.692-2.435,14.993-3.612l6.52,33.704c0.009,0.044,0.022,0.088,0.041,0.129
										c0.048,0.107,4.827,10.6,9.644,17.184C256.658,443.752,255.883,444.29,254.578,444.29L254.578,444.29z"/>
									<path style="fill:#EF7D6E;" d="M240.341,392.279l6.407,33.122c0.017,0.089,0.045,0.175,0.082,0.257
										c0.196,0.431,4.741,10.412,9.526,17.042c-0.294,0.714-0.837,1.014-1.778,1.014c-1.17,0-2.737-0.487-4.658-1.447
										c-0.581-0.29-1.253-0.581-2.031-0.918c-4.054-1.754-10.138-4.388-11.643-10.857c1.195-2.518,0.201-6.909,0.076-7.43
										c-0.01-0.044-0.023-0.086-0.039-0.128c-0.086-0.236-8.016-21.913-9.76-27.353
										C228.719,394.943,234.68,393.54,240.341,392.279 M241.248,390.897c0,0-16.237,3.589-16.132,3.997
										c0.744,2.909,10.086,28.435,10.086,28.435s1.178,4.931-0.173,6.984c1.717,8.657,10.698,11.145,14.376,12.985
										c0.98,0.49,3.247,1.569,5.173,1.569c1.409,0,2.637-0.577,3.048-2.384c-4.892-6.594-9.746-17.301-9.746-17.301
										L241.248,390.897L241.248,390.897z"/>
								</g>
							</g>
							<g>
								<path style="fill:#48404C;" d="M272.985,454.802c-6.581-0.245-19.297-0.693-20.461-0.531
									c-1.584,0.229-4.738-9.697-8.124-11.728c-1.882-1.138-6.418-0.665-10.075-0.015c-0.527-4.374-0.079-8.396,0.706-12.214
									c14.625,2.331,15.965,7.124,17.941,10.199c1.03,1.598,2.979,1.978,4.658,1.964c0.812,1.733,1.543,3.142,2.112,3.901
									c2.708,3.616,7.448,3.156,10.616,4.063C272.146,450.956,272.782,453.069,272.985,454.802z"/>
							</g>
							<g>
								<path style="fill:#201923;" d="M252.524,454.276c-1.58,0.225-4.738-9.705-8.124-11.737
									c-1.882-1.129-6.414-0.654-10.069-0.01c0.168,1.397,0.428,2.826,0.815,4.297c2.256,8.576,2.707,10.382,2.707,10.382l4.062,0
									l-0.901-11.736c0,0,4.514-3.61,6.77,4.064c2.256,7.674-0.904,7.222,4.965,7.223c5.868,0.001,20.312,0.454,20.312,0.454
									s0.083-1.093-0.075-2.407C266.4,454.559,253.689,454.109,252.524,454.276z"/>
							</g>
						</g>
						<g>
							<path style="fill:#201923;" d="M140.927,297.968c0,0-11.045,24.373,1.856,32.5c12.901,8.126,63.456,9.939,63.456,9.939
								l9.471,63.196l32.05-12.184l-21.133-65.086c-1.179-3.631-4.038-6.469-7.677-7.622l-48.366-15.323l-30.694-6.775
								L140.927,297.968z"/>
						</g>
					</g>
					<g>
						<g>
							<g>
								<g>
									<path style="fill:#FFB2A3;" d="M222.91,444.29c-1.26,0-2.914-0.508-4.916-1.509c-0.561-0.28-1.242-0.575-2.001-0.904
										c-4.202-1.818-10.528-4.556-12.02-11.449c1.482-2.323,2.095-4.522,2.108-7.527c0.022-5.284-0.517-13.777-3.187-24.393
										c1.783-0.601,9.521-2.395,14.831-3.576l-2.088,30.21c-0.006,0.096,0.011,0.191,0.05,0.278
										c0.048,0.107,4.827,10.6,9.644,17.184C224.99,443.752,224.214,444.29,222.91,444.29
										C222.91,444.29,222.91,444.29,222.91,444.29z"/>
									<path style="fill:#EF7D6E;" d="M217.096,395.662l-2.035,29.44c-0.013,0.191,0.021,0.382,0.1,0.556
										c0.196,0.431,4.741,10.412,9.526,17.042c-0.294,0.714-0.837,1.014-1.778,1.014c-1.17,0-2.737-0.487-4.658-1.447
										c-0.581-0.29-1.253-0.581-2.031-0.918c-4.045-1.751-10.112-4.377-11.633-10.816c1.453-2.346,2.057-4.594,2.07-7.63
										c0.022-5.23-0.502-13.581-3.072-24.004C205.698,398.28,211.503,396.911,217.096,395.662 M218.352,394.202h0.005H218.352z
										 M218.352,394.202c0,0-16.237,3.589-16.132,3.997c0.744,2.909,3.332,13.168,3.284,24.698
										c-0.014,3.306-0.794,5.362-2.144,7.415c1.717,8.657,10.698,11.145,14.376,12.985c0.98,0.49,3.247,1.569,5.173,1.569
										c1.41,0,2.637-0.577,3.048-2.384c-4.892-6.594-9.746-17.301-9.746-17.301L218.352,394.202L218.352,394.202z"/>
								</g>
							</g>
							<g>
								<path style="fill:#48404C;" d="M241.316,454.802c-6.581-0.245-19.297-0.693-20.461-0.531
									c-1.584,0.229-4.738-9.697-8.124-11.728c-1.882-1.138-6.418-0.665-10.075-0.015c-0.527-4.374-0.079-8.396,0.706-12.214
									c14.625,2.331,15.964,7.124,17.941,10.199c1.03,1.598,2.979,1.978,4.659,1.964c0.812,1.733,1.543,3.142,2.111,3.901
									c2.708,3.616,7.448,3.156,10.616,4.063C240.477,450.956,241.113,453.069,241.316,454.802z"/>
							</g>
							<g>
								<path style="fill:#201923;" d="M220.855,454.276c-1.58,0.225-4.738-9.705-8.124-11.737
									c-1.882-1.129-6.414-0.654-10.069-0.01c0.168,1.397,0.429,2.826,0.815,4.297c2.256,8.576,2.707,10.382,2.707,10.382l4.062,0
									l-0.901-11.736c0,0,4.514-3.61,6.77,4.064c2.256,7.674-0.904,7.222,4.965,7.223c5.868,0.001,20.312,0.454,20.312,0.454
									s0.083-1.093-0.075-2.407C234.732,454.559,222.021,454.109,220.855,454.276z"/>
							</g>
						</g>
						<g>
							<path style="fill:#352C38;" d="M123.282,305.905c0,0-11.046,24.373,1.855,32.5c12.901,8.127,66.881,7.462,66.881,7.462
								l9.471,63.196l26.431-9.706l-13.533-70.87c0,0,1.524-9.723-18.229-10.977c-15.792-1.003-43.22-6.185-43.22-6.185
								l-30.693-6.775L123.282,305.905z"/>
						</g>
					</g>
				</g>
				<g>
					<g>
						<path style="fill:#352C38;" d="M130.825,197.028c0,0,13.445,22.193,16.092,31.002c2.646,8.809,8.59,86.451,8.59,86.451
							l17.924-7.253l-14.436-34.85l0.787-37.189l-21.987-37.927L130.825,197.028z"/>
					</g>
					<g>
						<polygon style="fill:#5C4963;" points="136.71,204.76 138.913,198.849 144.695,207.071 141.262,207.975 147.496,214.209 
							149.959,239.033 147.496,229.84 						"/>
					</g>
					<g>
						<g>
							
								<path style="fill:#FFB2A3;stroke:#EF7D6E;stroke-width:1.2476;stroke-linecap:round;stroke-linejoin:round;stroke-miterlimit:10;" d="
								M121.714,205.313l0.278-20.318l9.76,0.858l5.124,0.591c0,0,1.695,21.613,3.258,26.153c1.564,4.541,6.184,16.632,6.184,16.632
								L121.714,205.313z"/>
						</g>
						<path style="fill:#EF7D6E;" d="M127.31,194.336c2.418,3.202,5.521,6.072,8.694,8.525c1.068,0.826,2.166,1.569,3.288,2.237
							c-0.993-7.898-1.783-18.547-1.794-18.699c-0.022-0.299-0.253-0.54-0.551-0.574l-5.179-0.595l-9.76-0.858
							c-0.221-0.005-0.411,0.11-0.527,0.282C123.217,187.731,125.179,191.514,127.31,194.336z"/>
					</g>
					<g>
						<path style="fill:#352C38;" d="M125.606,284.303c0,0-8.599,18.175-10.222,24.789c7.589,7.43,18.663,9.33,25.413,9.152
							c11.272-0.297,22.784-5.937,22.784-5.937l-13.32-72.83l-29.468-40.92l-17.121,9.053l2.767,24.56L125.606,284.303z"/>
					</g>
					<g>
						<path style="fill:#201923;" d="M125.606,284.303c0,0-2.558,5.407-5.146,11.395c3.793,5.187,7.8,10.204,12.31,14.807
							c2.664,2.719,5.522,5.36,8.58,7.716c7.101-0.295,14.217-2.633,18.421-4.28c-1.497-3.341-25.315-44.959-25.315-44.959
							s-14.319-53.325-21.248-66.414l-9.535,5.042l2.767,24.56L125.606,284.303z"/>
					</g>
					<path style="fill:#FFFFFF;" d="M147.496,229.84l-5.597-14.405c-0.053,0.763-1.046,1.684-2.105,2.263
						c-3.757,2.056-8.234-2.999-8.234-2.999l9.57,15.099l8.828,9.236L147.496,229.84z"/>
					<g>
						<polygon style="fill:#5C4963;" points="121.297,194.875 149.959,239.033 124.628,218.572 126.519,210.437 122.031,212.062 
							117.585,200.312 						"/>
					</g>
				</g>
				<g>
					<g>
						<g>
							
								<path style="fill:#FFB2A3;stroke:#EF7D6E;stroke-width:1.2476;stroke-linecap:round;stroke-linejoin:round;stroke-miterlimit:10;" d="
								M153.433,309.5c0,0,3.996,8.634,10.122,8.611c6.126-0.022,11.292,1.354,11.292,1.354s2.628,0.814,3.527,0.269
								c0.899-0.545,0.463-1.26,0.463-1.26s3.489,0.825,4.061,1.359c0.572,0.533,2.501,0.926,3.653,0.279
								c1.152-0.647,1.152-0.647,1.152-0.647s1.443,0.355,2.004-0.582c0.561-0.937-8.453-6.402-9.849-7.366
								c-1.396-0.964-11.121-3.544-11.121-3.544l-8.722-1.278L153.433,309.5z"/>
						</g>
						<g>
							<g>
								<path style="fill:#EF7D6E;" d="M171.78,315.565c0.923,0.908,2.188,1.35,3.362,1.855c1.479,0.636,3.043,1.49,4.624,1.797
									c0.428,0.083,0.665-0.454,0.296-0.703c-1.217-0.82-2.725-1.264-4.083-1.81c-1.324-0.533-2.705-1.24-4.153-1.251
									C171.77,315.453,171.74,315.525,171.78,315.565L171.78,315.565z"/>
							</g>
						</g>
						<g>
							<g>
								<path style="fill:#EF7D6E;" d="M177.542,313.588c1.829,1.093,3.695,2.105,5.543,3.168c1.653,0.951,3.251,2.237,5.022,2.939
									c0.379,0.15,0.654-0.403,0.385-0.662c-1.439-1.388-3.471-2.354-5.208-3.326c-1.855-1.038-3.595-1.864-5.699-2.225
									C177.525,313.472,177.482,313.552,177.542,313.588L177.542,313.588z"/>
							</g>
						</g>
					</g>
					<g>
						<path style="fill:#413645;" d="M120.194,213.213l11.343,59.124l35.654,33.107l-15.766,15.438l-41.333-41.242
							c0,0-13.35-59.222-10.087-67.618C102.656,205.199,118.211,196.736,120.194,213.213z"/>
					</g>
				</g>
				<g>
					
						<path style="fill:#FFB2A3;stroke:#EF7D6E;stroke-width:1.2203;stroke-linecap:round;stroke-linejoin:round;stroke-miterlimit:10;" d="
						M105.158,164.089c0.805,6.404,4.248,11.631,8.975,16.062c5.179,4.856,10.49,9.197,17.293,11.873
						c3.099,1.219,6.032,2.02,9.364,2.328c1.26,0.116,1.955,0.307,3.16-0.318c1.191-0.617,2.187-1.558,2.946-2.622
						c1.171-1.64,1.832-3.556,2.43-5.457c1.082-3.437,2.013-6.939,2.316-10.516c0.212-2.51,0.109-5.06-0.459-7.524
						c-0.265-1.149-0.646-2.067-1.22-3.078c-0.572-1.007-0.461-2.205-0.541-3.326c-0.205-2.878-1.01-5.695-2.213-8.335
						c-1.043-2.29-2.278-5-3.705-7.062c-3.25-4.696-10.208-7.288-15.881-7.336c-6.551-0.056-13.012,2.942-17.19,7.761
						C106.255,151.358,104.376,157.877,105.158,164.089z"/>
					<g>
						
							<path style="fill:#FFB2A3;stroke:#EF7D6E;stroke-width:1.2203;stroke-linecap:round;stroke-linejoin:round;stroke-miterlimit:10;" d="
							M141.933,167.639c0.54,2.197,1.743,4.242,3.427,5.825c0.65,0.611,1.425,1.262,1.452,2.133c0.03,0.974-0.885,1.704-1.712,2.274
							"/>
						<g>
							<g>
								<path style="fill:#522525;" d="M126.681,168.27c1.395-0.807,2.451-1.941,4.001-2.558c1.652-0.658,3.309-0.659,5.055-0.831
									c0.477-0.047,0.427-0.694,0.046-0.832c-3.018-1.091-8.496,0.754-9.502,3.894
									C126.214,168.154,126.461,168.398,126.681,168.27L126.681,168.27z"/>
							</g>
							<g>
								<path style="fill:#522525;" d="M134.213,172.818c2.262-0.868,0.853-4.226-1.412-3.357
									C130.539,170.329,131.947,173.687,134.213,172.818L134.213,172.818z"/>
							</g>
							<g>
								<path style="fill:#522525;" d="M147.746,168.702c2.309-0.746,1.098-4.174-1.214-3.427
									C144.223,166.022,145.434,169.449,147.746,168.702L147.746,168.702z"/>
							</g>
							<g>
								<path style="fill:#522525;" d="M143.302,162.679c1.206-0.604,2.403-1.29,3.749-1.56c1.086-0.218,2.567,0.249,3.494-0.281
									c0.195-0.111,0.328-0.365,0.197-0.572c-0.769-1.215-3.009-0.835-4.213-0.477c-1.515,0.451-2.826,1.308-3.38,2.763
									C143.115,162.638,143.219,162.72,143.302,162.679L143.302,162.679z"/>
							</g>
						</g>
						<g>
							<path style="fill:#FFB2A3;" d="M140.984,183.85c1.751,0.021,3.505-0.502,4.932-1.471"/>
							<g>
								<path style="fill:#EF7D6E;" d="M140.984,184.229c1.7,0.122,3.685,0.137,5.165-0.811c0.278-0.178,0.529-0.512,0.495-0.864
									c-0.108-1.118-1.118-1.121-1.932-0.631c-1.231,0.742-2.241,1.418-3.729,1.546
									C140.499,183.512,140.494,184.194,140.984,184.229L140.984,184.229z"/>
							</g>
						</g>
						<g>
							<path style="fill:#FFB2A3;" d="M142.439,185.818c0.738,0.175,1.541,0.089,2.221-0.237"/>
							<g>
								<path style="fill:#EF7D6E;" d="M142.194,186.257c0.596,0.7,2.245,0.542,2.822-0.107c0.431-0.485,0.113-1.152-0.502-1.212
									c-0.36-0.036-0.741,0.118-1.103,0.158c-0.356,0.039-0.796,0.075-1.1,0.263C141.977,185.563,141.953,185.974,142.194,186.257
									L142.194,186.257z"/>
							</g>
						</g>
					</g>
					<g>
						<path style="fill:#522525;" d="M124.012,131.791c-9.067,2.035-16.859,8.351-20.984,16.26
							c-4.299,8.241-3.512,18.06,0.416,26.308c5.502,11.552,14.191,12.954,17.962,12.776c-2.4-1.907-3.919-5.232-4.31-6.829
							c-0.589-2.406-0.826-2.795,0.996-4.856c1.183-1.337,2.957-2.053,4.336-3.206c4.77-3.991,3.611-11.87,8.073-16.174
							c2.289-2.208,5.613-3.027,8.612-4.232c3.192-1.282,6.723-3.769,6.846-7.414c0.121-3.643-2.553-7.016-5.331-9.254
							C135.684,131.187,129.745,130.504,124.012,131.791z"/>
					</g>
					<g>
						
							<path style="fill:#FFB2A3;stroke:#EF7D6E;stroke-width:1.2203;stroke-linecap:round;stroke-linejoin:round;stroke-miterlimit:10;" d="
							M118.964,175.883c-1.18-1.594-3.553-2.847-5.58-2.988c-3.695-0.257-4.495,3.395-3.036,5.962
							c1.909,3.356,6.312,7.173,10.59,5.371"/>
						
							<path style="fill:none;stroke:#EF7D6E;stroke-width:1.2203;stroke-linecap:round;stroke-linejoin:round;stroke-miterlimit:10;" d="
							M113.154,177.916c-0.66-0.583-0.505-1.74,0.192-2.041c1.753-0.757,3.555,1.551,4.159,2.864
							c-0.881,0.053-1.024,1.104-0.502,1.656c0.517,0.548,1.472,0.752,2.214,0.622"/>
					</g>
				</g>
			</g>
			<g>
				<g>
					
						<rect x="96.208" y="292.676" transform="matrix(0.89 -0.4559 0.4559 0.89 -134.281 80.3252)" style="fill:#D4D9FF;" width="6.333" height="51.705"/>
				</g>
				<g>
					
						<rect x="112.56" y="292.676" transform="matrix(0.89 -0.4559 0.4559 0.89 -132.485 87.7818)" style="fill:#D4D9FF;" width="6.333" height="51.705"/>
				</g>
				<path style="fill:#5B6AD4;" d="M121.863,303.75c-2.516-9.859-14.413-35.469-16.591-39.279
					c-5.942-10.398-42.413-7.168-42.413-7.168l20.044,46.447H121.863z"/>
				<rect x="139.165" y="394.936" style="fill:#D4D9FF;" width="10.568" height="51.056"/>
				<rect x="100.693" y="441.826" style="fill:#5B6AD4;" width="87.066" height="6.875"/>
				<circle style="fill:#5B6AD4;" cx="109.457" cy="454.035" r="6.319"/>
				<circle style="fill:#5B6AD4;" cx="179.378" cy="454.035" r="6.319"/>
				<rect x="136.192" y="342.154" style="fill:#D4D9FF;" width="16.514" height="62.969"/>
				<rect x="136.192" y="342.154" style="fill:#5B6AD4;" width="16.514" height="11.397"/>
				<polygon style="fill:#5B6AD4;" points="189.133,336.581 98.155,336.301 102.285,346.013 192.827,348.434 				"/>
			</g>
		</g>
	</g>
	<g>
		<defs>
			<rect id="SVGID_00000154420547077408053690000010537597299891351429_" y="327.46" width="500" height="172.54"/>
		</defs>
		<clipPath id="SVGID_00000172432698061133725740000005396484876485240713_">
			<use xlink:href="#SVGID_00000154420547077408053690000010537597299891351429_"  style="overflow:visible;"/>
		</clipPath>
		<g style="clip-path:url(#SVGID_00000172432698061133725740000005396484876485240713_);">
			<g>
				<g>
					<path style="fill:#A6B1FC;" d="M490.189,509.073c-9.811-1.904-18.399-9.192-21.873-18.562
						c-1.628-4.391-2.184-9.118-3.781-13.52c-3.578-9.865-11.933-17.099-20.03-23.774c-3.086-2.544-6.236-5.133-8.388-8.503
						c-2.493-3.905-3.461-8.561-4.383-13.101c-1.263-6.221-2.527-12.441-3.79-18.662c-0.573-2.822-1.161-5.686-2.483-8.244
						c-3.25-6.284-10.243-9.597-14.976-14.855c-3.387-3.762-5.589-8.575-6.222-13.597c-0.825-6.546,0.954-13.103,1.632-19.666
						c0.678-6.563-0.037-13.901-4.75-18.519c9.562,2.13,18.109,8.456,22.94,16.978c5.041,8.893,6.331,20.123,13.747,27.159
						c6.799,6.451,17.886,8.415,22.114,16.779c2.842,5.622,1.707,12.814,5.258,18.017c1.617,2.369,4.037,4.047,6.404,5.668
						c8.536,5.847,17.724,12.53,20.264,22.56c1.35,5.328,0.609,10.984,1.657,16.379c1.881,9.683,9.383,17.946,9.554,27.809
						c0.144,8.344-5.758,16.431-13.749,18.839"/>
				</g>
				<g>
					<path style="fill:#FFFFFF;" d="M404.568,338.601c3.593,2.043,7.193,4.188,10.189,7.107c1.499,1.447,2.814,3.108,3.782,4.976
						c0.993,1.858,1.561,3.923,1.853,5.994c0.297,2.076,0.354,4.162,0.457,6.227c0.091,2.068,0.226,4.131,0.388,6.19
						c0.353,4.113,0.887,8.216,1.912,12.194c0.504,1.989,1.124,3.948,1.918,5.83c0.758,1.898,1.705,3.713,2.803,5.425
						c2.184,3.446,5.169,6.284,8.402,8.833c3.211,2.576,6.629,4.966,9.701,7.844c3.075,2.84,5.693,6.406,7.005,10.469
						c1.328,4.031,1.809,8.199,2.613,12.224c0.806,3.995,1.973,8.028,4.657,11.035c2.635,3.04,6.526,4.732,9.891,7.264
						c3.407,2.497,6.23,5.737,8.379,9.347c2.169,3.605,3.591,7.641,4.241,11.784c0.34,2.072,0.384,4.189,0.372,6.255
						c0.006,2.067,0.008,4.128,0.494,6.109c0.884,4.003,3.022,7.625,4.849,11.335c0.916,1.86,1.781,3.765,2.335,5.774
						c0.559,2.001,0.76,4.123,0.402,6.171c0.307-2.057,0.052-4.158-0.551-6.128c-0.6-1.978-1.504-3.846-2.463-5.676
						c-1.909-3.653-4.155-7.224-5.177-11.337c-0.544-2.049-0.565-4.177-0.603-6.243c-0.018-2.075-0.09-4.117-0.449-6.135
						c-0.69-4.028-2.13-7.936-4.285-11.406c-2.144-3.469-4.909-6.567-8.196-8.968c-3.233-2.434-7.213-4.111-10.103-7.381
						c-1.456-1.594-2.495-3.515-3.271-5.485c-0.775-1.979-1.286-4.03-1.709-6.075c-0.832-4.091-1.338-8.205-2.626-12.06
						c-1.236-3.867-3.656-7.204-6.636-9.994c-2.97-2.811-6.353-5.204-9.592-7.826c-3.251-2.585-6.353-5.551-8.602-9.14
						c-1.126-1.781-2.106-3.657-2.862-5.618c-0.79-1.948-1.396-3.96-1.88-5.994c-0.988-4.069-1.466-8.223-1.765-12.367
						c-0.134-2.074-0.241-4.149-0.303-6.222c-0.07-2.074-0.11-4.138-0.358-6.174c-0.236-2.035-0.735-4.037-1.654-5.866
						c-0.896-1.838-2.142-3.501-3.587-4.967C411.651,342.969,408.109,340.732,404.568,338.601z"/>
				</g>
			</g>
			<g>
				<g>
					<path style="fill:#5B6AD4;" d="M503.155,512.502c2.888-5.277,5.776-10.555,8.665-15.832
						c6.165-11.264,12.452-24.716,7.058-36.369c-3.867-8.354-13.158-13.889-14.945-22.919c-1.093-5.526,0.922-11.121,1.971-16.655
						c2.244-11.838-0.095-24.485-6.424-34.738c-3.432-5.561-7.994-10.46-10.597-16.453c-4.389-10.107-2.598-21.698-0.729-32.557
						c-3.289,9.791-11.599,16.853-18.483,24.553c-6.884,7.701-12.865,17.992-9.978,27.909c3.358,11.537,17.732,18.735,17.512,30.75
						c-0.128,6.991-5.385,12.797-7.187,19.554c-1.734,6.501,0.026,13.827,4.525,18.83c4.564,5.075,11.936,8.314,13.461,14.967
						c1.617,7.053-4.441,14.283-2.553,21.269c1.74,6.436,9.07,9.224,14.172,13.516L503.155,512.502z"/>
				</g>
				<g>
					<path style="fill:#FFFFFF;" d="M485.859,343.258c-3.29,6.596-5.605,13.661-6.817,20.902c-0.635,3.615-1.003,7.274-1.085,10.939
						c-0.051,3.654-0.053,7.37,0.873,10.854c0.897,3.496,3.115,6.458,4.964,9.685c1.84,3.25,3.275,6.727,4.234,10.336
						c1.939,7.208,2.01,14.928,0.196,22.169c-0.87,3.599-1.953,7.12-2.195,10.712c-0.112,1.789-0.023,3.581,0.415,5.308
						c0.427,1.729,1.129,3.39,1.995,4.971c1.733,3.174,4.089,6.012,6.3,8.972c1.113,1.476,2.198,2.993,3.159,4.599
						c0.986,1.594,1.724,3.333,2.407,5.075c1.28,3.531,1.829,7.266,1.998,10.967c0.173,3.709,0.006,7.406-0.187,11.086
						c-0.412,7.33-0.99,14.775,0.795,21.979c-1.99-7.151-1.623-14.674-1.416-22.006c0.124-3.68,0.238-7.359,0.007-11.014
						c-0.224-3.648-0.823-7.285-2.114-10.676c-1.27-3.401-3.292-6.439-5.525-9.349c-2.207-2.927-4.609-5.777-6.436-9.075
						c-0.91-1.643-1.666-3.397-2.133-5.247c-0.48-1.85-0.585-3.782-0.475-5.666c0.241-3.787,1.331-7.375,2.173-10.931
						c1.806-7.056,1.772-14.537-0.078-21.578c-0.916-3.521-2.297-6.915-4.072-10.089c-1.787-3.14-4.055-6.248-4.952-9.981
						c-0.912-3.685-0.837-7.436-0.731-11.125c0.144-3.702,0.564-7.392,1.276-11.024C479.86,356.785,482.386,349.759,485.859,343.258
						z"/>
				</g>
			</g>
			<g>
				<g>
					<path style="fill:#5B6AD4;" d="M480.145,514.319c0.408-5.481-3.787-10.384-8.65-12.946c-4.863-2.561-10.414-3.411-15.666-5.031
						s-10.592-4.352-13.14-9.222c-1.117-2.135-1.618-4.544-2.682-6.705c-3.164-6.425-10.808-9.54-17.967-9.734
						c-6.645-0.18-13.956,1.496-19.486-2.193c-4.153-2.771-6.03-7.81-8.894-11.899c-4.457-6.363-11.782-10.631-19.515-11.371
						s-15.735,2.062-21.317,7.464c3.861-6.418,8.074-12.825,14.002-17.403c5.928-4.579,13.928-7.087,21.059-4.795
						c9.283,2.983,15.514,13.316,25.234,14.09c6.03,0.481,11.63-2.952,17.574-4.074c9.531-1.798,19.951,3.076,24.679,11.545
						c1.841,3.298,2.861,7.003,4.711,10.295c3.698,6.58,10.302,10.885,16.395,15.34c6.093,4.455,12.228,9.796,14.139,17.098
						C492.533,502.079,480.145,514.319,480.145,514.319z"/>
				</g>
				<g>
					<path style="fill:#FFFFFF;" d="M352.845,451.883l8.639-6.829c2.9-2.241,5.671-4.68,8.916-6.516
						c1.621-0.905,3.381-1.616,5.24-1.946c1.856-0.314,3.783-0.276,5.614,0.159c3.688,0.843,6.957,2.846,9.848,5.149
						c2.915,2.32,5.442,5.004,8.142,7.451c2.682,2.45,5.591,4.682,8.92,5.987c3.322,1.286,7,1.592,10.527,1.035
						c1.767-0.272,3.497-0.767,5.153-1.438c1.659-0.679,3.284-1.555,5.053-2.227c1.758-0.682,3.733-1.062,5.663-0.874
						c1.932,0.164,3.788,0.798,5.456,1.704c3.348,1.837,6.008,4.624,8.124,7.693c2.094,3.11,3.637,6.463,5.355,9.687
						c1.711,3.216,3.573,6.368,6.117,8.916c2.534,2.559,5.743,4.37,8.875,6.279c3.124,1.897,6.324,3.973,8.577,6.994
						c2.263,2.988,3.484,6.627,3.953,10.274c0.459,3.669,0.094,7.401-0.872,10.938c0.867-3.563,1.121-7.285,0.565-10.895
						c-0.565-3.59-1.869-7.114-4.139-9.939c-2.221-2.865-5.348-4.845-8.496-6.684c-3.143-1.853-6.446-3.634-9.148-6.271
						c-2.71-2.618-4.668-5.853-6.4-9.095c-1.746-3.241-3.309-6.573-5.339-9.549c-2.048-2.943-4.627-5.593-7.747-7.279
						c-1.555-0.834-3.249-1.396-4.981-1.534c-1.738-0.157-3.459,0.18-5.118,0.823c-1.669,0.621-3.291,1.483-5.032,2.188
						c-1.748,0.698-3.574,1.21-5.437,1.487c-3.718,0.567-7.604,0.228-11.132-1.158c-3.527-1.405-6.53-3.755-9.237-6.251
						c-2.734-2.487-5.217-5.202-8.014-7.505c-2.789-2.295-5.924-4.272-9.417-5.126c-1.736-0.442-3.551-0.503-5.315-0.236
						c-1.767,0.281-3.465,0.943-5.065,1.787c-3.211,1.696-6.06,4.057-9.022,6.218L352.845,451.883z"/>
				</g>
			</g>
		</g>
		<g style="clip-path:url(#SVGID_00000172432698061133725740000005396484876485240713_);">
			<g>
				<g>
					<path style="fill:#5B6AD4;" d="M-11.97,513.552c9.163-0.351,17.973-5.756,22.437-13.766c2.092-3.753,3.259-7.963,5.324-11.73
						c4.628-8.444,13.218-13.833,21.497-18.751c3.155-1.874,6.374-3.78,8.798-6.535c2.808-3.191,4.339-7.278,5.811-11.266
						c2.018-5.464,4.035-10.928,6.053-16.392c0.915-2.479,1.85-4.994,3.408-7.128c3.828-5.243,10.634-7.267,15.663-11.371
						c3.599-2.937,6.27-6.993,7.549-11.458c1.666-5.821,0.972-12.016,1.277-18.063s1.982-12.6,6.904-16.127
						c-8.969,0.591-17.608,5.129-23.183,12.18c-5.818,7.358-8.562,17.361-16.274,22.701c-7.07,4.896-17.399,5.123-22.406,12.116
						c-3.365,4.7-3.344,11.381-7.294,15.601c-1.798,1.922-4.228,3.104-6.601,4.242c-8.56,4.105-17.829,8.878-21.539,17.617
						c-1.971,4.642-2.092,9.875-3.798,14.621c-3.063,8.517-11.024,14.958-12.562,23.878c-1.301,7.547,2.918,15.708,9.826,19.011"/>
				</g>
				<g>
					<path style="fill:#FFFFFF;" d="M89.572,370.968c-3.51,1.436-7.036,2.968-10.068,5.245c-1.516,1.127-2.88,2.46-3.949,4.001
						c-1.09,1.53-1.823,3.275-2.322,5.088c-0.51,1.812-0.835,3.678-1.19,5.549c-0.347,1.872-0.734,3.738-1.147,5.6
						c-0.851,3.717-1.868,7.417-3.334,10.968c-1.44,3.549-3.362,6.962-5.928,9.865c-2.543,2.939-5.771,5.194-9.081,7.082
						c-3.305,1.923-6.709,3.619-9.796,5.752c-3.093,2.112-5.755,4.799-7.418,8.133c-1.708,3.316-2.744,6.975-4.072,10.568
						c-0.67,1.795-1.422,3.583-2.402,5.269c-0.98,1.677-2.191,3.274-3.735,4.515c-3.079,2.56-6.923,3.523-10.197,5.277
						c-3.318,1.717-6.259,4.138-8.689,6.984c-2.441,2.844-4.294,6.186-5.485,9.742c-0.609,1.78-0.96,3.622-1.267,5.501
						c-0.324,1.868-0.642,3.795-1.422,5.577c-1.503,3.587-4.041,6.51-6.284,9.555c-1.126,1.525-2.208,3.092-3.029,4.802
						c-0.823,1.702-1.349,3.571-1.359,5.479c-0.038-1.907,0.442-3.803,1.23-5.539c0.785-1.744,1.835-3.35,2.927-4.908
						c2.177-3.108,4.624-6.093,5.986-9.599c1.403-3.472,1.249-7.419,2.519-11.091c1.17-3.666,3.025-7.127,5.498-10.092
						c2.455-2.971,5.469-5.514,8.909-7.301c3.406-1.824,7.172-2.813,9.988-5.201c2.855-2.351,4.479-5.844,5.77-9.354
						c1.294-3.537,2.314-7.25,4.083-10.719c1.759-3.5,4.634-6.366,7.82-8.511c3.189-2.179,6.623-3.867,9.897-5.753
						c3.289-1.858,6.394-4.013,8.858-6.832c1.235-1.399,2.348-2.912,3.302-4.526c0.984-1.596,1.821-3.285,2.557-5.018
						c1.488-3.464,2.546-7.11,3.443-10.789c0.436-1.845,0.847-3.697,1.22-5.559c0.383-1.858,0.727-3.742,1.287-5.583
						c0.554-1.837,1.36-3.63,2.52-5.176c1.14-1.558,2.565-2.88,4.127-3.982C82.462,373.757,86.027,372.317,89.572,370.968z"/>
				</g>
			</g>
			<g>
				<g>
					<path style="fill:#A6B1FC;" d="M-3.813,519.659c0.434-5.479,5.328-9.684,10.525-11.471c5.197-1.788,10.813-1.779,16.25-2.579
						c5.438-0.799,11.132-2.683,14.394-7.106c1.43-1.939,2.293-4.243,3.675-6.216c4.109-5.866,12.138-7.776,19.242-6.875
						c6.595,0.837,13.563,3.611,19.591,0.809c4.527-2.104,7.152-6.797,10.607-10.4c5.376-5.607,13.267-8.706,21.022-8.255
						c7.755,0.45,15.234,4.441,19.926,10.632c-2.835-6.933-6.019-13.907-11.178-19.337c-5.159-5.43-12.681-9.131-20.078-7.956
						c-9.63,1.53-17.366,10.789-27.089,10.069c-6.033-0.446-11.042-4.694-16.745-6.711c-9.144-3.233-20.185-0.008-26.152,7.639
						c-2.323,2.977-3.897,6.484-6.229,9.454c-4.66,5.937-11.843,9.183-18.545,12.655c-6.701,3.472-13.581,7.812-16.585,14.736
						C-14.185,505.671-3.813,519.659-3.813,519.659z"/>
				</g>
				<g>
					<path style="fill:#FFFFFF;" d="M131.524,477.406l-7.717-7.855c-2.596-2.587-5.051-5.356-7.965-7.523
						c-1.452-1.079-3.029-1.992-4.733-2.54c-1.702-0.534-3.505-0.751-5.288-0.579c-3.582,0.311-6.983,1.785-10.089,3.627
						c-3.116,1.848-5.985,4.152-9.066,6.192c-3.056,2.054-6.383,3.916-10.083,4.766c-3.698,0.831-7.59,0.572-11.178-0.556
						c-1.798-0.559-3.525-1.343-5.145-2.3c-1.613-0.962-3.084-2.062-4.639-2.931c-1.54-0.888-3.19-1.485-4.931-1.595
						c-1.732-0.128-3.492,0.169-5.156,0.755c-3.34,1.189-6.294,3.414-8.767,6.01c-2.46,2.631-4.514,5.685-6.735,8.621
						c-2.207,2.94-4.637,5.837-7.714,8.01c-3.073,2.193-6.609,3.449-9.998,4.8c-3.391,1.337-6.785,2.815-9.417,5.307
						c-2.674,2.444-4.502,5.728-5.608,9.189c-1.101,3.483-1.418,7.2-1.106,10.853c-0.415-3.642-0.206-7.386,0.809-10.942
						c1.021-3.533,2.783-6.942,5.476-9.549c2.688-2.642,6.168-4.204,9.545-5.602c3.386-1.409,6.834-2.708,9.729-4.849
						c2.903-2.129,5.224-4.96,7.406-7.876c2.19-2.923,4.228-6.001,6.772-8.755c2.56-2.709,5.615-5.057,9.204-6.361
						c1.788-0.641,3.719-0.983,5.652-0.85c1.936,0.109,3.83,0.786,5.463,1.729c1.646,0.934,3.118,2.048,4.653,2.973
						c1.534,0.916,3.168,1.669,4.872,2.208c3.4,1.089,7.082,1.349,10.561,0.586c3.489-0.781,6.705-2.543,9.729-4.554
						c3.041-2.006,5.948-4.273,9.184-6.12c3.209-1.833,6.746-3.314,10.519-3.583c1.876-0.15,3.786,0.107,5.572,0.7
						c1.786,0.609,3.417,1.581,4.88,2.723c2.927,2.31,5.292,5.144,7.816,7.802L131.524,477.406z"/>
				</g>
			</g>
		</g>
	</g>
</g>
</svg>
